<?xml version="1.0" encoding="utf-8"?>
<!-- Generator: Adobe Illustrator 19.2.1, SVG Export Plug-In . SVG Version: 6.00 Build 0)  -->
<svg version="1.1" xmlns="http://www.w3.org/2000/svg" xmlns:xlink="http://www.w3.org/1999/xlink" x="0px" y="0px"
	 viewBox="0 0 2000 2090" style="enable-background:new 0 0 2000 2090;" xml:space="preserve">
<style type="text/css">
	.st0{fill:none;}
	.st1{fill:#FB7E14;}
</style>
<g id="Layer_1">
	<g transform="translate(0.000000,2090.000000) scale(0.100000,-0.100000)">
		<path class="st0" d="M0,10450V0h10000h10000v10450v10450H10000H0V10450z M9979,19263c38-98,185-468,326-823s330-829,420-1055
			c90-225,321-808,515-1295s425-1069,515-1295c90-225,242-609,339-852c97-244,255-642,352-885c97-244,249-627,339-853
			c90-225,243-610,340-855s255-641,350-880s257-646,360-905c103-258,265-666,360-905s257-646,360-905c103-258,260-654,350-880
			c90-225,261-655,380-955s273-687,342-860c68-173,128-319,133-324c4-4,124,28,267,72c925,289,2227,691,2228,689
			c3-3,102-306,215-657c50-157,118-366,150-465c33-99,145-448,250-775c106-327,205-635,221-685c16-49,29-91,29-92s-28-11-62-22
			c-35-10-207-65-383-121s-367-117-425-135s-292-92-520-165s-554-176-725-230c-170-54-454-144-630-200s-367-117-425-135
			s-199-63-315-100c-115-37-257-82-315-100s-292-92-520-165c-1187-377-1110-353-1115-348c-2,3-136,341-358,903
			c-52,132-179,452-281,710c-103,259-231,583-286,720c-54,138-191,484-305,770c-113,286-250,633-305,770c-54,138-191,484-305,770
			c-113,286-293,741-400,1010c-107,270-291,735-410,1035s-260,658-315,795c-54,138-182,459-283,715s-186,470-188,477
			c-2,6-45-50-96-125c-50-76-214-317-363-537c-150-220-323-476-386-570c-64-93-207-305-319-470c-237-350-526-775-710-1048
			c-72-105-230-338-351-517c-292-430-680-1002-829-1222c-66-98-205-304-310-458c-104-154-249-367-320-473c-72-105-245-361-385-567
			c-583-860-687-1013-796-1175c-64-93-175-258-247-365l-133-195l-1817-3l-1817-2l33,50c34,53,675,1046,842,1305
			c192,298,810,1255,1207,1870c220,341,426,659,457,708c31,48,229,355,441,683s417,646,455,705c39,60,230,356,425,659
			c195,302,400,620,455,705s228,354,385,596c157,243,317,491,355,550c39,60,243,377,455,705s417,646,455,705c39,60,230,356,425,659
			c195,302,400,620,455,705s191,296,302,468s205,320,208,328c3,9-30,126-74,260c-43,134-154,476-246,759s-191,592-222,685
			c-30,94-81,251-113,350c-103,316-154,474-240,742l-85,263H6538H5330v1465v1465h2289h2290L9979,19263z"/>
	</g>
	<polygon class="st1" points="533,146 533,439 774.5,439 872.5,744.9 168.3,1836.6 140.3,1880 500.4,1884.5 1024.9,1112.3 
		1368.5,1979.8 1912,1807.7 1825.5,1540.3 1576,1616.4 990.9,146 	"/>
</g>
<g id="Layer_2">
</g>
</svg>
